<svg xmlns="http://www.w3.org/2000/svg" viewBox="0 0 64 64" role="img" aria-labelledby="title">
  <title id="title">TypeScript</title>
  <rect width="64" height="64" rx="7" fill="#3178c6"/>
  <path fill="#fff" d="M14 29h28v6H31v24h-7V35H14v-6Zm31.4 29.6c-3.5 0-6.2-.8-8.3-2.5v-7.2c2.4 2.1 5.1 3.2 8.2 3.2 2.6 0 3.9-.8 3.9-2.3 0-.7-.3-1.2-.9-1.7-.6-.4-1.8-1-3.7-1.7-2.8-1-4.8-2.2-6-3.6-1.2-1.4-1.8-3.2-1.8-5.4 0-2.8 1.1-5 3.2-6.6 2.1-1.6 4.9-2.4 8.3-2.4 3 0 5.5.5 7.5 1.6v6.8c-2.2-1.5-4.6-2.2-7.2-2.2-1.1 0-2 .2-2.7.6-.7.4-1 1-1 1.7 0 .6.3 1.1.8 1.5.5.4 1.6.9 3.3 1.5 2.9 1 5 2.2 6.3 3.7 1.3 1.5 2 3.4 2 5.7 0 2.9-1 5.1-3.1 6.7-2.1 1.5-5 2.3-8.8 2.3Z"/>
</svg>
